<?xml version="1.0" encoding="UTF-8"?>
<svg width="355px" height="366px" viewBox="0 0 355 366" version="1.1" xmlns="http://www.w3.org/2000/svg" xmlns:xlink="http://www.w3.org/1999/xlink">
    <title>Group</title>
    <g id="Page-1" stroke="none" stroke-width="1" fill="none" fill-rule="evenodd">
        <g id="GPMK_dark" transform="translate(-82, -50)">
            <g id="Group" transform="translate(82.4144, 50)">
                <circle id="Oval" fill="#FFFFFF" cx="152.585594" cy="200" r="73"></circle>
                <path d="M151.671077,292.8129 C163.267479,292.8129 174.363681,290.651892 184.585747,286.707197 C184.361727,330.537744 149.078497,366 105.586952,366 C61.9557068,366 26.5855943,330.309562 26.5855943,286.283175 C26.5855943,258.650399 40.5190669,234.301433 61.6833464,219.999644 C70.8203594,261.657925 107.640055,292.8129 151.671077,292.8129 Z" id="Combined-Shape" fill="#B4D9C0"></path>
                <path d="M302.880802,206.203888 C314.546202,206.203888 325.708429,204.04955 335.991329,200.117028 C335.766073,243.813048 300.272682,279.166263 256.522106,279.166263 C212.630904,279.166263 177.050055,243.585414 177.050055,199.694212 C177.050055,172.146537 191.066287,147.872528 212.356335,133.614601 C221.548671,175.144825 258.58762,206.203888 302.880802,206.203888 Z" id="Combined-Shape" fill="#B4D9C0" transform="translate(256.5207, 206.3904) scale(-1, -1) rotate(67) translate(-256.5207, -206.3904)"></path>
                <path d="M151.948663,106.883112 C163.614062,106.883112 174.776289,104.728774 185.059189,100.796252 C184.833933,144.492272 149.340543,179.845487 105.589966,179.845487 C61.6987646,179.845487 26.1179155,144.264638 26.1179155,100.373436 C26.1179155,72.8257611 40.134147,48.5517524 61.4241952,34.2938251 C70.6165311,75.8240495 107.655481,106.883112 151.948663,106.883112 Z" id="Combined-Shape" fill="#B4D9C0" transform="translate(105.5886, 107.0697) scale(-1, -1) rotate(-54) translate(-105.5886, -107.0697)"></path>
                <path d="M59.1285314,196.743908 C42.8901105,187.479756 31.2181993,173.888006 24.1127976,155.96866 C23.7952895,156.737326 23.3196825,178.680506 22.7260304,195.680479 C22.1323782,212.680453 22.2772607,236.590402 22.2772607,236.590402 C30.4924179,217.965388 42.7761748,204.683224 59.1285314,196.743908 Z" id="Path-3" fill="#B4D9C0" transform="translate(40.6951, 196.2795) scale(1, -1) rotate(-2) translate(-40.6951, -196.2795)"></path>
                <path d="M231.338045,313.057596 C214.634898,303.963958 203.307581,289.857276 197.356093,270.737552 C197.038585,271.506219 195.158947,295.355562 194.565294,312.355536 C193.971642,329.355509 194.486774,352.90409 194.486774,352.90409 C202.701932,334.279076 214.985689,320.996912 231.338045,313.057596 Z" id="Path-3" fill="#B4D9C0" transform="translate(212.8087, 311.8208) scale(1, -1) rotate(114) translate(-212.8087, -311.8208)"></path>
                <path d="M238.249203,104.868261 C221.124092,95.2409603 209.401648,80.7772707 203.08187,61.4771923 C202.764362,62.2458591 201.914034,83.9664064 201.543393,102.840284 C201.172753,121.714162 201.112358,143.598095 201.112358,143.598095 C209.327515,124.973081 221.706463,112.063136 238.249203,104.868261 Z" id="Path-3" fill="#B4D9C0" transform="translate(219.6808, 102.5376) scale(1, -1) rotate(-129) translate(-219.6808, -102.5376)"></path>
            </g>
        </g>
    </g>
</svg>